<?xml version="1.0" encoding="UTF-8"?>
<svg id="Layer_2" data-name="Layer 2" xmlns="http://www.w3.org/2000/svg" xmlns:xlink="http://www.w3.org/1999/xlink" viewBox="0 0 445.77 458.66">
  <defs>
    <style>
      .cls-1, .cls-2, .cls-3 {
        fill: #fff;
      }

      .cls-4 {
        opacity: .4;
      }

      .cls-4, .cls-5, .cls-6 {
        fill: #92e3a9;
      }

      .cls-7 {
        clip-path: url(#clippath-2);
      }

      .cls-8 {
        opacity: .2;
      }

      .cls-9 {
        clip-path: url(#clippath-1);
      }

      .cls-2 {
        opacity: .7;
      }

      .cls-3, .cls-10, .cls-11 {
        stroke: #263238;
      }

      .cls-3, .cls-12, .cls-11 {
        stroke-linecap: round;
        stroke-linejoin: round;
      }

      .cls-10 {
        stroke-miterlimit: 10;
      }

      .cls-10, .cls-12, .cls-11 {
        fill: none;
      }

      .cls-13 {
        clip-path: url(#clippath);
      }

      .cls-12 {
        opacity: .3;
        stroke: #fff;
      }

      .cls-14 {
        clip-path: url(#clippath-3);
      }

      .cls-6 {
        opacity: 0;
      }

      .cls-15 {
        fill: #263238;
      }
    </style>
    <clipPath id="clippath">
      <path class="cls-3" d="m163.77,313.99s-7.02-9.79-10.7-10.57c-2.2-.47-6.93,2.6-7.28,5.29s3.12,17.59,2.08,20.71c-1.04,3.12,4.57,11.86,8.65,16.58,4.08,4.72,5.2,7.48,7.97,3.67"/>
    </clipPath>
    <clipPath id="clippath-1">
      <path class="cls-3" d="m264.8,313.99s7.02-9.79,10.7-10.57c2.2-.47,6.93,2.6,7.28,5.29s-3.12,17.59-2.08,20.71c1.04,3.12-4.57,11.86-8.65,16.58-4.08,4.72-5.2,7.48-7.97,3.67"/>
    </clipPath>
    <clipPath id="clippath-2">
      <path class="cls-3" d="m271.16,274.23c-1.23-15.29-11.21-47.43-56.72-47.63h0c-.05,0-.1,0-.16,0-.05,0-.1,0-.16,0h0c-45.51.21-55.49,32.35-56.72,47.64-1.23,15.32,5.25,72.11,7.55,82.85,2.47,11.51,14.09,19.97,26.2,32.64,8.76,9.16,10.11,10.34,22.97,10.47h0c.05,0,.1,0,.16,0,.05,0,.1,0,.16,0h0c12.85-.14,14.21-1.31,22.97-10.48,12.11-12.67,23.73-21.13,26.2-32.64,2.3-10.74,8.79-67.53,7.55-82.85Z"/>
    </clipPath>
    <clipPath id="clippath-3">
      <path class="cls-3" d="m279.45,152.66c0-35.99-29.18-65.16-65.16-65.16s-65.16,29.18-65.16,65.16,26.8,62.71,60.71,65l4.45,16.99,4.45-16.99c33.91-2.29,60.71-30.5,60.71-65Z"/>
    </clipPath>
  </defs>
  <g id="Background_Simple" data-name="Background Simple">
    <path class="cls-2" d="m32.21,139.98s-27.88,71.99,11.3,144.5c39.17,72.52,119.88,110.8,184.47,143.55,64.59,32.75,131.66,16.8,163.53-36.84,31.87-53.64-11.85-91.93-11.9-168.42-.05-76.49,11.45-96.74-29.96-161.36C308.24-3.22,206.6-17.52,129.75,30.41c-76.84,47.93-97.54,109.56-97.54,109.56Z"/>
    <g>
      <path class="cls-5" d="m175.87,437.25c-122.78-20.76-105.25-88.5-142.78-165.74C-4.45,194.28-8.53,162.66,30.9,95.3,70.34,27.94,153.95-11.06,230.44,43.5c76.5,54.55,133.29,36.3,179.37,79.02,46.07,42.72,51.45,103.33-4.88,158.34-56.34,55.01-77.67,181.98-229.06,156.39Z"/>
      <path class="cls-2" d="m175.87,437.25c-122.78-20.76-105.25-88.5-142.78-165.74C-4.45,194.28-8.53,162.66,30.9,95.3,70.34,27.94,153.95-11.06,230.44,43.5c76.5,54.55,133.29,36.3,179.37,79.02,46.07,42.72,51.45,103.33-4.88,158.34-56.34,55.01-77.67,181.98-229.06,156.39Z"/>
    </g>
  </g>
  <g id="Character">
    <g>
      <g>
        <path class="cls-1" d="m279.89,437.09s-21.94-4.83-26.1-15.89c-4.16-11.07,3.81-39.2,5.55-66.94h-90.12c1.73,27.73,9.71,55.87,5.55,66.94-4.16,11.07-26.1,15.89-26.1,15.89,0,0,45.65,21.3,62.07,21.57,18.11.29,69.15-21.57,69.15-21.57Z"/>
        <path class="cls-4" d="m157.49,434.37c3.47.91,7.6,1.91,11.66,2.72,6.53,1.31,12.88,2.1,16.03,1.2.9-.26,1.69-.67,2.37-1.2,5.32-4.11,4.26-15.23,4.26-15.23,41.34-3.07,58.93-40.07,59.48-41.22-4.27,16.29-14.44,42.97-11.58,53.71.32,1.23.88,2.12,1.6,2.74,2.14,1.85,5.76,1.34,9.43,0,5.99-2.18,12.13-6.59,12.13-6.59-4.06-2.39-7.62-5.48-9.06-9.31-4.16-11.06,3.81-39.2,5.55-66.94h-90.12c1.74,27.74,9.71,55.88,5.55,66.94-2.39,6.37-10.68,10.67-17.28,13.18Z"/>
        <path class="cls-10" d="m279.89,437.09s-21.94-4.83-26.1-15.89c-4.16-11.07,3.81-39.2,5.55-66.94h-90.12c1.73,27.73,9.71,55.87,5.55,66.94-4.16,11.07-26.1,15.89-26.1,15.89"/>
        <path class="cls-15" d="m255.77,371.12s-22.91,28.78-29.22,32.81c-8.27,5.28-26.19,5.03-30.39.53s-24.35-29.67-24.17-35.57c.33-10.75,83.77,2.23,83.77,2.23Z"/>
      </g>
      <g>
        <g>
          <g>
            <path class="cls-1" d="m163.77,313.99s-7.02-9.79-10.7-10.57c-2.2-.47-6.93,2.6-7.28,5.29s3.12,17.59,2.08,20.71c-1.04,3.12,4.57,11.86,8.65,16.58,4.08,4.72,5.2,7.48,7.97,3.67"/>
            <g class="cls-13">
              <path class="cls-4" d="m147.87,329.41c-1.04,3.12,4.57,11.87,8.65,16.58,4.07,4.72,5.2,7.48,7.97,3.67-3,1.13-5.32-5.12-3.93-6.33,1.38-1.21.33-16.24-1.63-18.57-1.97-2.32-4.26-18.01-7.73-19.04-1.38-.41-3.34.7-5.2,2.21-.11.25-.18.51-.21.76-.34,2.69,3.12,17.6,2.09,20.72Z"/>
            </g>
            <path class="cls-11" d="m163.77,313.99s-7.02-9.79-10.7-10.57c-2.2-.47-6.93,2.6-7.28,5.29s3.12,17.59,2.08,20.71c-1.04,3.12,4.57,11.86,8.65,16.58,4.08,4.72,5.2,7.48,7.97,3.67"/>
          </g>
          <path class="cls-11" d="m148.91,316.41s-1.04-4.45,1.21-5.6c2.25-1.16,5.12,12.95,6.93,14.27s.52,4.68,0,6.59c-.52,1.91,1.56,2.43,1.73,3.81.17,1.39.35,2.95-.69,3.29-1.04.35-4.68-2.25-5.72-4.33-1.04-2.08-1.56-8.32-1.56-8.32"/>
          <path class="cls-11" d="m155.32,321.56s-2.59-.98-2.94,1.96"/>
        </g>
        <g>
          <g>
            <path class="cls-1" d="m264.8,313.99s7.02-9.79,10.7-10.57c2.2-.47,6.93,2.6,7.28,5.29s-3.12,17.59-2.08,20.71c1.04,3.12-4.57,11.86-8.65,16.58-4.08,4.72-5.2,7.48-7.97,3.67"/>
            <g class="cls-9">
              <path class="cls-4" d="m264.09,349.67c2.76,3.79,3.88,1.04,7.96-3.68,4.07-4.71,9.69-13.46,8.65-16.58-1.03-3.12,2.43-18.03,2.09-20.72-.03-.25-.1-.49-.2-.74-1.87-1.51-3.84-2.65-5.22-2.23-3.47,1.03-5.77,16.72-7.73,19.04-1.96,2.33-3.02,17.36-1.64,18.57,1.38,1.2-.92,7.41-3.9,6.34Z"/>
            </g>
            <path class="cls-11" d="m264.8,313.99s7.02-9.79,10.7-10.57c2.2-.47,6.93,2.6,7.28,5.29s-3.12,17.59-2.08,20.71c1.04,3.12-4.57,11.86-8.65,16.58-4.08,4.72-5.2,7.48-7.97,3.67"/>
          </g>
          <path class="cls-11" d="m279.65,316.41s1.04-4.45-1.21-5.6c-2.25-1.16-5.12,12.95-6.93,14.27s-.52,4.68,0,6.59c.52,1.91-1.56,2.43-1.73,3.81-.17,1.39-.35,2.95.69,3.29,1.04.35,4.68-2.25,5.72-4.33,1.04-2.08,1.56-8.32,1.56-8.32"/>
          <path class="cls-11" d="m273.25,321.56s2.59-.98,2.94,1.96"/>
        </g>
      </g>
      <g>
        <path class="cls-1" d="m271.16,274.23c-1.23-15.29-11.21-47.43-56.72-47.63h0c-.05,0-.1,0-.16,0-.05,0-.1,0-.16,0h0c-45.51.21-55.49,32.35-56.72,47.64-1.23,15.32,5.25,72.11,7.55,82.85,2.47,11.51,14.09,19.97,26.2,32.64,8.76,9.16,10.11,10.34,22.97,10.47h0c.05,0,.1,0,.16,0,.05,0,.1,0,.16,0h0c12.85-.14,14.21-1.31,22.97-10.48,12.11-12.67,23.73-21.13,26.2-32.64,2.3-10.74,8.79-67.53,7.55-82.85Z"/>
        <g class="cls-7">
          <g>
            <path class="cls-4" d="m214.36,344.11c-5.11,0-7.31-3.37-8.93-3.37s-4.39.64-4.39.64c0,0,.5-4.94,3.42-6.93,0,0-8.74,4.49-9.68,6.93-.94,2.44,0,12.89,0,12.89,0,0,3.88-7.65,4.78-6.85,4.56,4.05,10.71,4.05,10.71,4.05l-1,2.8,4.49,1.96s-1-3.98.51-4.76c1.51-.78,4,.84,4,.84,0,0,8.27-2.02,10.71-4.88,1.24-1.45,3.4,6.85,3.4,6.85,0,0,1.16-10.47,0-14.04s-7.5-5.78-7.5-5.78c0,0,3.9,4.16,2.62,6.93,0,0-1.86-1.07-5.45-.38-.26.05-4.44,3.11-7.71,3.11Z"/>
            <path class="cls-4" d="m231.69,362.71s1.26-1.93-11.97-4.07l-5.44,1.62-5.44-1.62s-11.35,1.6-13,4.07c0,0,9.03.67,15.3-.17l3.14,1.14,3.14-1.14s12.08.48,14.27.17Z"/>
            <path class="cls-4" d="m229,367.5s-1.17,3.75-4.56,4.96c-3.39,1.21-16.72,2.08-19.76,0s-5.11-4.96-5.11-4.96c0,0,6.21,1.98,14.72.7,8.5-1.28,10.01,1.97,14.72-.7Z"/>
            <path class="cls-4" d="m239.7,299.6c-.62-1.5-11.3-.99-12.27,0-.97.99-6.27,7.72-7.55,12.49-1.27,4.77-1.65,11.97-1.43,14.62.22,2.65,4.85-2.46,6.76-5.31,1.91-2.85.6-7.1,1.34-9.31.74-2.21,5.17,3.09,5.17,3.09,0,0-3.87-5.3-2.68-7.9,1.19-2.6,10.65-7.68,10.65-7.68Z"/>
            <path class="cls-4" d="m206.67,309.54s-5.51-9.48-7.1-10.32c-1.59-.84-5.9-.96-6.94,0-1.04.96-2.52,4.38-.83,4.14s15.04,11.2,14.87,6.17Z"/>
            <path class="cls-4" d="m263.6,357.08c-1.64,7.68-7.36,14-14.58,21.12,2.04-8.51,2.71-19.36,2.73-28.1.04-14.21,6.56-22.88,8.88-28.42,2.33-5.55-4.28-8.62-4.28-8.62,0,0-6.02-7.33-4.29-8.37,1.74-1.04,4.73-9.36,4.73-9.36l3.83-.18c-2.23-4.46-5.09-13.34-3.83-17.13,1.26-3.79-2.3-16.66-2.3-16.66l15.98,7.72c.34,1.87.56,3.6.68,5.16,1.24,15.32-5.26,72.11-7.55,82.85Z"/>
            <path class="cls-4" d="m179.54,378.2c-7.22-7.12-12.94-13.44-14.58-21.12-2.3-10.74-8.79-67.53-7.55-82.85.12-1.56.34-3.3.68-5.16l15.98-7.72s-3.57,12.86-2.3,16.66c1.26,3.79-1.6,12.67-3.83,17.13l3.83.18s3,8.32,4.73,9.36c1.74,1.04-4.29,8.37-4.29,8.37,0,0-6.61,3.08-4.28,8.62,2.32,5.54,8.84,14.21,8.88,28.42.02,8.75.68,19.59,2.73,28.1Z"/>
          </g>
        </g>
        <path class="cls-11" d="m271.16,274.23c-1.23-15.29-11.21-47.43-56.72-47.63h0c-.05,0-.1,0-.16,0-.05,0-.1,0-.16,0h0c-45.51.21-55.49,32.35-56.72,47.64-1.23,15.32,5.25,72.11,7.55,82.85,2.47,11.51,14.09,19.97,26.2,32.64,8.76,9.16,10.11,10.34,22.97,10.47h0c.05,0,.1,0,.16,0,.05,0,.1,0,.16,0h0c12.85-.14,14.21-1.31,22.97-10.48,12.11-12.67,23.73-21.13,26.2-32.64,2.3-10.74,8.79-67.53,7.55-82.85Z"/>
      </g>
      <g>
        <path class="cls-15" d="m227.76,296.1c.45-1.91,2.09-3.4,4.19-3.82,5.32-1.06,12.57-2.64,19.1-.66,9.15,2.77,8.8,7.97,8.8,7.97,0,0-2.71-4.97-8.8-4.39s-23.63,2.31-23.63,2.31l.34-1.42Z"/>
        <path class="cls-15" d="m251.09,312.8s-3.16,4.51-10.95,4.43c-7.79-.08-10.14-4.46-10.14-4.46l3.33,1.17s6.6,3.14,14.56-.46l3.2-.68Z"/>
        <path class="cls-11" d="m231.71,309.03s3.81-4.1,7.03-4.23"/>
        <path class="cls-11" d="m219.29,313.99c-2.25,6.24,0,20.45,0,20.45"/>
        <path class="cls-11" d="m232.38,312s8.31,3.46,15.23,0"/>
        <path class="cls-11" d="m225.61,303.41s2.7-4.62,4.99-5.03"/>
        <path class="cls-15" d="m200.8,296.1c-.45-1.91-2.09-3.4-4.19-3.82-5.32-1.06-12.57-2.64-19.1-.66-9.15,2.77-8.8,7.97-8.8,7.97,0,0,2.71-4.97,8.8-4.39s23.63,2.31,23.63,2.31l-.34-1.42Z"/>
        <path class="cls-15" d="m178.48,312.8s3.16,4.51,10.95,4.43c7.79-.08,10.14-4.46,10.14-4.46l-3.33,1.17s-6.6,3.14-14.56-.46l-3.2-.68Z"/>
        <path class="cls-11" d="m197.85,309.03s-3.81-4.1-7.03-4.23"/>
        <path class="cls-11" d="m197.19,312s-8.31,3.46-15.23,0"/>
        <path class="cls-11" d="m197.97,298.38c7.41,1.21,11.31,15.6,11.31,15.6,2.25,6.24,0,20.45,0,20.45"/>
        <path class="cls-11" d="m207.42,341.51s2.45,2.6,6.94,2.6,6.79-2.6,6.79-2.6"/>
        <g>
          <path class="cls-15" d="m217.9,349.06s1.56-1.91,3.14-2.85c1.58-.94,2.64.79,2.64.79,0,0-2.03,1.91-3.56,1.61l-2.21.45Z"/>
          <path class="cls-15" d="m210.67,349.06s-1.56-1.91-3.14-2.85c-1.58-.94-2.64.79-2.64.79,0,0,2.03,1.91,3.56,1.61l2.21.45Z"/>
        </g>
        <g>
          <path class="cls-11" d="m204.46,348.63s-4.71-1.36-4.88-3.61c-.17-2.25,1.47-3.64,1.47-3.64"/>
          <path class="cls-11" d="m224.1,348.63s4.71-1.36,4.88-3.61c.17-2.25-1.47-3.64-1.47-3.64"/>
        </g>
        <path class="cls-11" d="m233.78,364.05s-.95-2.09-2.09-1.33c-1.14.76-13.7-.52-14.27-.17-.29.18-3.14,1.14-3.14,1.14,0,0-2.86-.97-3.14-1.14-.57-.36-13.13.93-14.27.17-1.14-.76-2.09,1.33-2.09,1.33"/>
        <path class="cls-11" d="m230.47,366.11s-2.31,2.77-4.85,2.77-5.34-.69-11.33-.69-8.79.69-11.33.69-4.85-2.77-4.85-2.77"/>
        <path class="cls-11" d="m230.47,360.73s-8.55-1.96-10.75-2.08l-5.44,1.62-5.44-1.62c-2.2.12-10.75,2.08-10.75,2.08"/>
      </g>
      <path class="cls-15" d="m269.64,240.01c-9.61-11.94-35.15-21.3-59.47-17.66,0,0,6.87-2.6,10.68-2.6,0,0-18.31-.63-24.01,4.85l5.7-5.48s-19.74,5.51-23.98,12.95l4.24-7.44s-2.91,1.25-6.66,3.22h0c-7.58,3.24-13.75,7.5-17.5,12.16-9.61,11.94-5.13,38-5.13,38-1.56,29.49,7.8,51.74,7.8,51.74-.9-10.92,1.75-39.07,1.75-39.07,0,0,5.04-2.98,4.99-7.79-.05-4.81,2.97-19.46,8.52-19.8,5.55-.35,36.74,6.15,36.74,6.15,0,0,.29-.11.83-.31.53.2.83.31.83.31,0,0,31.19-6.49,36.74-6.15,5.55.35,8.57,14.99,8.52,19.8-.05,4.81,4.99,7.79,4.99,7.79,0,0,2.65,28.14,1.75,39.07,0,0,9.36-22.25,7.8-51.74,0,0,4.48-26.06-5.13-38Z"/>
      <g>
        <path class="cls-12" d="m215.31,262.93s-9.77-13.55-2.43-26.2"/>
        <path class="cls-12" d="m207.71,262.93s-13.71-10.12-13.53-21.19"/>
        <path class="cls-12" d="m197.97,261.55s-18.63-4.71-20.75-13.84"/>
        <path class="cls-12" d="m225.61,262.93s0-12.68,9.06-19.35"/>
        <path class="cls-12" d="m234.66,261.55s3.51-7.15,12.44-8.86"/>
      </g>
    </g>
  </g>
  <g id="Mind_map" data-name="Mind map">
    <g>
      <g>
        <g>
          <path class="cls-11" d="m348.88,82.68v-6.15l-4.6-.4c-.27-.97-.65-1.9-1.14-2.76l2.97-3.53-4.35-4.35-3.53,2.97c-.86-.48-1.79-.86-2.76-1.14l-.4-4.6h-6.15l-.4,4.6c-.97.27-1.9.65-2.76,1.14l-3.53-2.97-4.35,4.35,2.97,3.53c-.48.86-.86,1.79-1.14,2.76l-4.6.4v6.15l4.6.4c.27.97.65,1.9,1.14,2.76l-2.97,3.53,4.35,4.35,3.53-2.97c.86.48,1.79.86,2.76,1.14l.4,4.6h6.15l.4-4.6c.97-.27,1.9-.65,2.76-1.14l3.53,2.97,4.35-4.35-2.97-3.53c.48-.86.86-1.79,1.14-2.76l4.6-.4Zm-16.88,4.07c-3.94,0-7.14-3.2-7.14-7.14s3.2-7.14,7.14-7.14,7.14,3.2,7.14,7.14-3.2,7.14-7.14,7.14Z"/>
          <path class="cls-11" d="m372.21,96.4v-4.37l-3.28-.28c-.19-.69-.47-1.35-.81-1.96l2.11-2.51-3.09-3.09-2.51,2.11c-.61-.34-1.27-.61-1.96-.81l-.28-3.28h-4.37l-.28,3.28c-.69.2-1.35.47-1.96.81l-2.51-2.11-3.09,3.09,2.11,2.51c-.34.61-.61,1.27-.81,1.96l-3.28.28v4.37l3.28.28c.2.69.47,1.35.81,1.96l-2.11,2.51,3.09,3.09,2.51-2.11c.61.34,1.27.61,1.96.81l.28,3.28h4.37l.28-3.28c.69-.2,1.35-.47,1.96-.81l2.51,2.11,3.09-3.09-2.11-2.51c.34-.61.61-1.27.81-1.96l3.28-.28Zm-12.01,2.9c-2.81,0-5.08-2.28-5.08-5.08s2.27-5.08,5.08-5.08,5.08,2.28,5.08,5.08-2.27,5.08-5.08,5.08Z"/>
          <path class="cls-11" d="m347.82,109.59v-3.11l-2.33-.2c-.14-.49-.33-.96-.58-1.4l1.5-1.79-2.2-2.2-1.79,1.5c-.44-.24-.91-.44-1.4-.58l-.2-2.33h-3.11l-.2,2.33c-.49.14-.96.33-1.4.58l-1.79-1.5-2.2,2.2,1.5,1.79c-.24.44-.44.91-.58,1.4l-2.33.2v3.11l2.33.2c.14.49.33.96.58,1.4l-1.5,1.79,2.2,2.2,1.79-1.5c.44.24.9.44,1.4.58l.2,2.33h3.11l.2-2.33c.49-.14.96-.33,1.4-.58l1.79,1.5,2.2-2.2-1.5-1.79c.24-.44.44-.91.58-1.4l2.33-.2Zm-8.54,2.06c-2,0-3.62-1.62-3.62-3.62s1.62-3.62,3.62-3.62,3.62,1.62,3.62,3.62-1.62,3.62-3.62,3.62Z"/>
        </g>
        <g>
          <path class="cls-11" d="m299.52,89.66c0-24.38,19.77-44.15,44.15-44.15"/>
          <path class="cls-11" d="m357.7,131.53c-4.41,1.48-9.12,2.28-14.03,2.28-12.53,0-23.85-5.22-31.89-13.61-5.83-6.08-9.93-13.83-11.53-22.46"/>
          <path class="cls-11" d="m369.96,125.13c-1.98,1.47-4.09,2.78-6.31,3.91"/>
          <path class="cls-11" d="m387.82,89.66c0,12.19-4.94,23.23-12.93,31.22"/>
          <path class="cls-11" d="m352.57,46.4c8.77,1.79,16.6,6.19,22.63,12.35,1.91,1.95,3.64,4.07,5.17,6.35"/>
        </g>
      </g>
      <g>
        <g>
          <line class="cls-11" x1="71.95" y1="73.23" x2="69.51" y2="76.58"/>
          <line class="cls-11" x1="66.94" y1="74.71" x2="69.38" y2="71.36"/>
          <circle class="cls-11" cx="80.39" cy="58.93" r="16.53" transform="translate(-9.33 15.5) rotate(-10.41)"/>
          <path class="cls-11" d="m50.69,99.72h0c-1.14-.83-1.39-2.42-.56-3.56l14.87-20.41c.83-1.14,2.42-1.39,3.56-.56h0c1.14.83,1.39,2.42.56,3.56l-14.87,20.41c-.83,1.14-2.42,1.39-3.56.56Z"/>
          <path class="cls-11" d="m91.99,67.38c-4.66,6.4-13.63,7.81-20.03,3.15-6.4-4.66-7.81-13.63-3.15-20.03,4.66-6.4,13.63-7.81,20.03-3.15,6.4,4.66,7.81,13.63,3.15,20.03Z"/>
        </g>
        <g>
          <path class="cls-11" d="m54.68,111.07c-22.11-10.28-31.7-36.54-21.42-58.65"/>
          <path class="cls-11" d="m117.18,75.98c-.52,4.62-1.78,9.23-3.85,13.68-5.29,11.37-14.79,19.42-25.79,23.17-7.97,2.72-16.73,3.17-25.23.98"/>
          <path class="cls-11" d="m116.55,62.16c.5,2.42.8,4.88.88,7.37"/>
          <path class="cls-11" d="m91.91,31.01c11.05,5.14,18.98,14.28,22.85,24.89"/>
          <path class="cls-11" d="m37.83,44.73c5.33-7.2,12.61-12.44,20.74-15.31,2.57-.91,5.23-1.58,7.93-2.01"/>
        </g>
      </g>
      <g>
        <g>
          <path class="cls-11" d="m.5,181.24c0-18.29,14.82-33.11,33.11-33.11"/>
          <path class="cls-11" d="m44.13,212.64c-3.31,1.11-6.84,1.71-10.52,1.71-9.4,0-17.89-3.92-23.91-10.21-4.37-4.56-7.45-10.38-8.65-16.85"/>
          <path class="cls-11" d="m53.33,207.84c-1.49,1.1-3.07,2.09-4.73,2.93"/>
          <path class="cls-11" d="m66.72,181.24c0,9.14-3.71,17.42-9.7,23.41"/>
          <path class="cls-11" d="m40.29,148.8c6.58,1.35,12.45,4.64,16.97,9.26,1.43,1.46,2.73,3.05,3.87,4.76"/>
        </g>
        <g>
          <path class="cls-11" d="m46.91,174.47c0-7.34-5.95-13.3-13.3-13.3s-13.3,5.95-13.3,13.3c0,4.98,2.74,9.32,6.8,11.6l.43,1.7h12.12l.43-1.7c4.06-2.28,6.8-6.61,6.8-11.6Z"/>
          <path class="cls-11" d="m37.31,198.78h-7.39c-.98,0-1.79-.74-1.89-1.71l-.91-9.29h12.99l-.91,9.29c-.1.97-.91,1.71-1.89,1.71Z"/>
          <path class="cls-11" d="m37.45,198.95c0,1.29-1.72,2.34-3.84,2.34s-3.84-1.05-3.84-2.34"/>
          <polyline class="cls-11" points="27.12 177.68 30.2 177.68 32.12 173.63 34.36 181.41 36.71 174.47 37.88 177.52 40.11 177.52"/>
        </g>
      </g>
      <g>
        <g>
          <path class="cls-11" d="m204.64,2.23c10.09-4.48,21.9.06,26.38,10.14"/>
          <path class="cls-11" d="m198.02,34c-1.42-1.55-2.62-3.36-3.52-5.38-2.31-5.19-2.23-10.83-.23-15.69,1.45-3.53,3.9-6.65,7.17-8.9"/>
          <path class="cls-11" d="m202.92,37.89c-.97-.55-1.9-1.18-2.78-1.89"/>
          <path class="cls-11" d="m220.88,38.76c-5.04,2.24-10.52,2.23-15.29.39"/>
          <path class="cls-11" d="m232.29,16.22c.87,3.96.49,8-.95,11.63-.45,1.15-1.02,2.26-1.68,3.3"/>
        </g>
        <g>
          <polygon class="cls-11" points="214.44 25.49 211.08 25.49 209.08 9 216.44 9 214.44 25.49"/>
          <polygon class="cls-11" points="214.44 28.49 211.08 28.49 210.08 31.99 215.44 31.99 214.44 28.49"/>
        </g>
      </g>
      <g>
        <g>
          <path class="cls-11" d="m404.19,221.09c-10.73,2.58-21.53-4.03-24.11-14.76"/>
          <path class="cls-11" d="m416.46,191.04c1.12,1.78,1.97,3.77,2.49,5.93,1.33,5.52.23,11.05-2.61,15.48-2.06,3.21-5.04,5.84-8.67,7.45"/>
          <path class="cls-11" d="m412.35,186.32c.86.72,1.66,1.51,2.39,2.36"/>
          <path class="cls-11" d="m394.84,182.22c5.37-1.29,10.75-.28,15.11,2.39"/>
          <path class="cls-11" d="m379.54,202.32c-.14-4.05.97-7.96,3.04-11.27.66-1.05,1.41-2.03,2.25-2.95"/>
        </g>
        <path class="cls-11" d="m405.81,193.65c-3.34-1.03-5.37,1.03-6.29,2.36-.92-1.32-2.95-3.38-6.29-2.36-3.63,1.12-4.89,5.74-1.84,9.97,2.2,3.04,5.74,5.11,7.55,6.03.22.11.41.2.57.28.16-.07.36-.17.57-.28,1.81-.92,5.35-3,7.55-6.03,3.06-4.22,1.79-8.85-1.84-9.97Z"/>
      </g>
      <g>
        <g>
          <path class="cls-11" d="m323.69,243.22c13.87-7.16,30.92-1.73,38.08,12.14"/>
          <path class="cls-11" d="m316.97,288.61c-2.13-2.07-3.97-4.52-5.42-7.31-3.68-7.13-4.04-15.1-1.63-22.14,1.75-5.1,4.95-9.72,9.39-13.16"/>
          <path class="cls-11" d="m324.21,293.7c-1.42-.7-2.78-1.51-4.08-2.44"/>
          <path class="cls-11" d="m349.64,293.44c-6.93,3.58-14.66,4.01-21.56,1.82"/>
          <path class="cls-11" d="m363.88,260.68c1.56,5.52,1.35,11.26-.37,16.5-.55,1.66-1.25,3.27-2.09,4.8"/>
        </g>
        <g>
          <g>
            <circle class="cls-11" cx="337.33" cy="267.62" r="13.31"/>
            <path class="cls-11" d="m340.07,270.48c-1.58,1.52-4.09,1.46-5.61-.12s-1.46-4.09.12-5.61,4.09-1.46,5.61.12,1.46,4.09-.12,5.61Z"/>
            <path class="cls-11" d="m343.12,273.67c-3.34,3.2-8.65,3.09-11.86-.26-3.2-3.34-3.09-8.65.26-11.86,3.34-3.2,8.65-3.09,11.86.26,3.2,3.34,3.09,8.65-.26,11.86Z"/>
          </g>
          <line class="cls-11" x1="337.33" y1="267.62" x2="351.81" y2="253.75"/>
          <polyline class="cls-11" points="351.93 250.25 351.85 253.71 355.31 253.78"/>
          <polyline class="cls-11" points="349.76 252.32 349.69 255.78 353.15 255.86"/>
          <polyline class="cls-11" points="347.59 254.4 347.52 257.86 350.98 257.93"/>
        </g>
      </g>
      <g>
        <g>
          <path class="cls-11" d="m80.6,302.35c-10.73,2.58-21.53-4.03-24.11-14.76"/>
          <path class="cls-11" d="m92.88,272.31c1.12,1.78,1.97,3.78,2.49,5.93,1.33,5.52.23,11.05-2.61,15.48-2.06,3.21-5.04,5.84-8.67,7.45"/>
          <path class="cls-11" d="m88.76,267.59c.86.72,1.66,1.51,2.39,2.36"/>
          <path class="cls-11" d="m71.25,263.49c5.37-1.29,10.75-.28,15.11,2.39"/>
          <path class="cls-11" d="m55.95,283.59c-.14-4.05.97-7.96,3.04-11.27.66-1.05,1.41-2.03,2.25-2.95"/>
        </g>
        <g>
          <polyline class="cls-11" points="67.31 275.6 67.31 290.24 84.55 290.24"/>
          <rect class="cls-11" x="70.87" y="279.71" width="2.57" height="10.53"/>
          <rect class="cls-11" x="75.87" y="282.71" width="2.57" height="7.53"/>
          <rect class="cls-11" x="80.87" y="276.71" width="2.57" height="13.53"/>
        </g>
      </g>
      <g>
        <polyline class="cls-11" points="95.92 267.62 214.28 155.81 68.55 174.74"/>
        <polyline class="cls-11" points="114.77 99.3 214.28 155.81 212.42 43.45"/>
        <polyline class="cls-11" points="303.02 115.77 214.28 155.81 374.89 195.21"/>
        <line class="cls-11" x1="214.28" y1="155.81" x2="313.85" y2="246.01"/>
      </g>
    </g>
    <g>
      <g>
        <path class="cls-1" d="m279.45,152.66c0-35.99-29.18-65.16-65.16-65.16s-65.16,29.18-65.16,65.16,26.8,62.71,60.71,65l4.45,16.99,4.45-16.99c33.91-2.29,60.71-30.5,60.71-65Z"/>
        <g class="cls-14">
          <path class="cls-6" d="m279.45,152.66c0-35.99-29.18-65.16-65.16-65.16s-65.16,29.18-65.16,65.16,26.8,62.71,60.71,65l4.45,16.99,4.45-16.99c33.91-2.29,60.71-30.5,60.71-65Z"/>
        </g>
        <path class="cls-11" d="m279.45,152.66c0-35.99-29.18-65.16-65.16-65.16s-65.16,29.18-65.16,65.16,26.8,62.71,60.71,65l4.45,16.99,4.45-16.99c33.91-2.29,60.71-30.5,60.71-65Z"/>
      </g>
      <g>
        <path class="cls-5" d="m253.27,159.5c-.34,1.58-.6,3.44-.86,5.23-.39,2.75-.8,5.59-1.47,7.51-.3.85-1.03,1.77-2.02,2.67-.05,1.12-.54,7.66-5.13,9.75-.16,1.13-.68,2.33-2.01,3.09-.17.09-16.08,8.72-21.74,8.72-.41,0-.77-.05-1.06-.14-2.72-.9-4-2.59-3.91-5.33.03-1.03.24-2.2.65-3.53-1.07-1.49-.83-3.39-.61-5.07.15-1.08.28-2.1.07-2.89-.54-2.05.23-5.39.44-6.21-.68-1.06-.47-4.09-.11-8.18.13-1.41.25-2.73.25-3.54,0-.89.45-1.69,1.09-2.37-.44-1.99-.11-6.25-.05-6.86-1.12-4.27-.17-10.48-.02-11.41-2.18-5.55-.57-10.73-.22-11.74-1.87-3.63-.91-10.64-.8-11.4-.08-.57-.57-4.81,1.45-6.76.86-.84,2.07-1.13,3.56-.86,3.47.64,5.65,1.08,7.23,1.51,1.09.3,1.89.59,2.6.92,1.03.47,2.37,2,3.04,3.81.92-.26,3.38-.7,5.69,1.07,2.25,1.74,2.34,3.33,2.26,3.99,4.9,3.01,6.76,15.32,6.96,16.84.5.49,2.36,2.64,1.51,6.36,1.54,1.67,2.03,3.76,1.38,5.92-.15.48-.35.96-.6,1.42,0,0,0,0,0,0,.14.13,3.31,3.27,2.43,7.46Z"/>
        <path class="cls-8" d="m253.27,159.5c-.34,1.58-.6,3.44-.86,5.23-.39,2.75-.8,5.59-1.47,7.51-.3.85-1.03,1.77-2.02,2.67-.05,1.12-.54,7.66-5.13,9.75-.16,1.13-.68,2.33-2.01,3.09-.17.09-16.08,8.72-21.74,8.72-.41,0-.77-.05-1.06-.14-2.72-.9-4-2.59-3.91-5.33.16.08.32.25.47.57,1.44,2.88,4.17,3.17,6.47,2.72,2.3-.46,2.87-3.18,2.87-3.18l-3.96-2.48s4.54-1.45,7.35-2.51c2.81-1.06,1.18-3.48,1.18-3.48-2.82.45-4.24-.78-4.24-.78,0,0,.4-1.8,1.75-2.3,1.35-.5,6.07-3.28,4.25-4.73-1.81-1.44-4.25-.1-4.25-.1-3.65.57-4.95-1.52-4.95-1.52,0,0,10.25-2.98,10.1-6.51-.15-3.53-1.05-5.13-1.05-5.13,0,0,4.11-1.19,4.87-4.06.77-2.88-2.49-6.29-2.49-6.29,1.66.42,2.75-2.04,2.49-2.94-.27-.91,3.3-3.79,3.14-5.75-.15-1.97-3.14-2.21-3.14-2.21,1.85-3.88-1.29-12.09-1.29-12.09.86-4.31-2.98-8.02-2.98-8.02.25-3.25-1.81-6.39-3.69-8.52,1.09.3,1.89.59,2.6.92,1.03.47,2.37,2,3.04,3.81.92-.26,3.38-.7,5.69,1.07,2.25,1.74,2.34,3.33,2.26,3.99,4.9,3.01,6.76,15.32,6.96,16.84.5.49,2.36,2.64,1.51,6.36,1.54,1.67,2.03,3.76,1.38,5.92-.15.48-.35.96-.6,1.42,0,0,0,0,0,0,.14.13,3.31,3.27,2.43,7.46Z"/>
        <path class="cls-5" d="m212.84,187.48c1.49,4.9.48,7.63-3.26,8.86-.29.09-.64.14-1.06.14-2.15,0-5.78-1.25-9.47-2.79-6.01-2.53-12.16-5.88-12.27-5.93-1.33-.76-1.85-1.96-2.01-3.09-4.58-2.1-5.08-8.63-5.13-9.75-.99-.9-1.72-1.82-2.02-2.67-.67-1.91-1.08-4.76-1.47-7.51-.26-1.79-.52-3.64-.86-5.23-.89-4.18,2.29-7.33,2.43-7.46,0,0,0,0,0,0-.25-.46-.46-.94-.6-1.42-.65-2.16-.15-4.25,1.38-5.92-.85-3.72,1.02-5.87,1.51-6.36.21-1.52,2.06-13.82,6.96-16.84-.08-.67,0-2.26,2.26-3.99,2.31-1.77,4.77-1.33,5.69-1.07.67-1.81,2.01-3.34,3.04-3.81,1.75-.81,3.96-1.35,9.83-2.43,1.38-.25,2.52-.02,3.37.69.07.05.13.11.19.17,2.01,1.94,1.52,6.18,1.45,6.76.11.76,1.07,7.77-.8,11.4.35,1,1.96,6.19-.22,11.74.15.93,1.11,7.14-.02,11.41.05.61.38,4.87-.05,6.86.63.68,1.09,1.48,1.09,2.37,0,.81.12,2.13.24,3.54.37,4.09.58,7.11-.1,8.18.21.82.98,4.16.44,6.21-.21.8-.08,1.81.07,2.89.22,1.68.46,3.58-.61,5.07Z"/>
        <path class="cls-8" d="m212.84,187.48c1.49,4.9.48,7.63-3.26,8.86-.29.09-.64.14-1.06.14-2.15,0-5.78-1.25-9.47-2.79,1.9.29,3.57.26,4.62-.34,4.23-2.43,1.3-4.71,1.3-4.71,5.53.54,4.36-5.99,4.8-9.07.44-3.07-3.24-5.84-3.24-5.84,2.86.44,2.19-6.01,3.43-8.39,1.25-2.38-.9-7.65-.9-7.65-.47-4.18-2.16-5.51,0-8.35,2.16-2.85,0-9.79,0-9.79,0,0,1.48-3.11.9-5.58-.57-2.49,0-7.34,0-7.34-2.03-2.58,0-11.07,0-11.07.1-2.17.62-3.66,1.2-4.67.07.05.13.11.19.17,2.01,1.94,1.52,6.18,1.45,6.76.11.76,1.07,7.77-.8,11.4.35,1,1.96,6.19-.22,11.74.15.93,1.11,7.14-.02,11.41.05.61.38,4.87-.05,6.86.63.68,1.09,1.48,1.09,2.37,0,.81.12,2.13.24,3.54.37,4.09.58,7.11-.1,8.18.21.82.98,4.16.44,6.21-.21.8-.08,1.81.07,2.89.22,1.68.46,3.58-.61,5.07Z"/>
        <g>
          <g>
            <path class="cls-11" d="m225.05,120.23s-1.01,5.68,2.02,8.02c0,0-.61,6.98,1.21,10.21,0,0-3.03,6.46,0,10.49,0,0-3.63,9.68,0,12.11,3.63,2.42,13.32-4.24,17.15-5.04s8.47-6.86,4.21-11.21"/>
            <path class="cls-11" d="m238.12,139.87s.04-2.02,0-4.84c-.04-2.82-2.17-6.78-2.17-6.78,1.01-2.54-2.82-8.02-2.82-8.02,1.61-2.49-.97-6.47-2.69-7.26-1.72-.8-3.96-1.34-9.74-2.4-5.77-1.05-4.54,7.24-4.54,7.24,0,0-1.18,7.74.83,11.37,0,0-2.22,5.7.2,11.73,0,0-1.21,6.91,0,11.41,0,0-.44,5.06.08,7"/>
            <path class="cls-11" d="m234.12,140.9s4.25-1.99,9.1,0"/>
            <path class="cls-11" d="m221.02,156.94s-4.87,1.94-4.87,4.64-1.25,10.49-.11,11.64c1.15,1.15,11.2.54,18.08-4.1,0,0,8.69.81,10.51-1.41,1.82-2.22,4.89-2.79,5.27-4.22"/>
            <path class="cls-11" d="m250.58,152.32s3.17,3.08,2.32,7.11-1.21,9.57-2.32,12.69c-1.1,3.12-8.26,7.35-12.46,6.11,0,0-12.06,4.72-15.09,3.46"/>
            <path class="cls-11" d="m216.04,173.22s-1.07,3.97-.48,6.19c.59,2.22-1.25,5.72.59,8.01,1.84,2.29,16.77,1.07,18.99-1.35"/>
            <path class="cls-11" d="m243.21,181.9s1.25,3.89-1.61,5.52-18.75,9.78-22.49,8.56c-3.74-1.23-4.4-3.98-2.96-8.56"/>
            <path class="cls-11" d="m248.55,174.74s-.15,7.57-5.07,9.65"/>
            <path class="cls-11" d="m233.39,116.91s2.98-1.19,5.7.9,2.06,3.88,2.06,3.88c5.2,2.8,7.03,16.84,7.03,16.84,0,0,2.49,2.15,1.46,6.28-1.03,4.13-6.84,3.14-11.52,5.7-4.69,2.56-9.84-1.55-9.84-1.55"/>
            <path class="cls-11" d="m228.28,161.05s-1.82,3.51-6.25,4.28"/>
            <path class="cls-11" d="m226.97,146.12s-3.26-.65-6.76,1.21"/>
            <path class="cls-11" d="m217.18,140.9s4.24-3.26,5.85-2.65"/>
            <path class="cls-11" d="m226.97,130.99s-5.35-.61-6.76,1.61"/>
            <path class="cls-11" d="m216.98,129.17s.61-2.82,3.23-3.23"/>
            <path class="cls-11" d="m216.15,117.8s1.64-2.89,4.06-2.42"/>
            <path class="cls-11" d="m238.12,178.23s.45-3.13-1.37-4.51"/>
            <path class="cls-11" d="m234.12,169.12s1.43-4.34,1.02-5.4"/>
            <path class="cls-11" d="m224.89,173.28s1.98.87,2.08,2.69"/>
            <path class="cls-11" d="m240.99,149.33s1.62,2.64.81,4.46"/>
            <path class="cls-11" d="m248.18,138.52s-3.15-2.49-4.97-2.89"/>
            <path class="cls-11" d="m235.95,128.24s2.61-1.29,5.04-.69"/>
          </g>
          <g>
            <path class="cls-11" d="m203.51,120.23s1.01,5.68-2.02,8.02c0,0,.61,6.98-1.21,10.21,0,0,3.03,6.46,0,10.49,0,0,3.63,9.68,0,12.11s-13.32-4.24-17.15-5.04-8.47-6.86-4.21-11.21"/>
            <path class="cls-11" d="m190.44,139.87s-.04-2.02,0-4.84c.04-2.82,2.17-6.78,2.17-6.78-1.01-2.54,2.82-8.02,2.82-8.02-1.61-2.49.97-6.47,2.69-7.26,1.72-.8,3.96-1.34,9.74-2.4,5.77-1.05,4.54,7.24,4.54,7.24,0,0,1.18,7.74-.83,11.37,0,0,2.22,5.7-.2,11.73,0,0,1.21,6.91,0,11.41,0,0,.44,5.06-.08,7"/>
            <path class="cls-11" d="m194.45,140.9s-4.25-1.99-9.1,0"/>
            <path class="cls-11" d="m207.55,156.94s4.87,1.94,4.87,4.64,1.26,10.49.11,11.64c-1.14,1.15-11.2.54-18.08-4.1,0,0-8.69.81-10.51-1.41s-4.89-2.79-5.27-4.22"/>
            <path class="cls-11" d="m177.99,152.32s-3.17,3.08-2.32,7.11c.86,4.03,1.21,9.57,2.32,12.69,1.1,3.12,8.26,7.35,12.46,6.11,0,0,12.06,4.72,15.09,3.46"/>
            <path class="cls-11" d="m212.53,173.22s1.07,3.97.48,6.19c-.59,2.22,1.25,5.72-.59,8.01-1.84,2.29-16.77,1.07-18.99-1.35"/>
            <path class="cls-11" d="m185.35,181.9s-1.25,3.89,1.61,5.52,18.75,9.78,22.49,8.56,4.4-3.98,2.96-8.56"/>
            <path class="cls-11" d="m180.02,174.74s.15,7.57,5.07,9.65"/>
            <path class="cls-11" d="m195.17,116.91s-2.98-1.19-5.7.9c-2.71,2.09-2.06,3.88-2.06,3.88-5.2,2.8-7.03,16.84-7.03,16.84,0,0-2.49,2.15-1.46,6.28,1.03,4.13,6.84,3.14,11.52,5.7,4.69,2.56,9.84-1.55,9.84-1.55"/>
            <path class="cls-11" d="m200.29,161.05s1.82,3.51,6.25,4.28"/>
            <path class="cls-11" d="m201.59,146.12s3.26-.65,6.76,1.21"/>
            <path class="cls-11" d="m211.38,140.9s-4.24-3.26-5.85-2.65"/>
            <path class="cls-11" d="m201.59,130.99s5.35-.61,6.76,1.61"/>
            <path class="cls-11" d="m211.58,129.17s-.61-2.82-3.23-3.23"/>
            <path class="cls-11" d="m212.42,117.8s-1.64-2.89-4.06-2.42"/>
            <path class="cls-11" d="m190.44,178.23s-.45-3.13,1.37-4.51"/>
            <path class="cls-11" d="m194.45,169.12s-1.43-4.34-1.02-5.4"/>
            <path class="cls-11" d="m203.68,173.28s-1.98.87-2.08,2.69"/>
            <path class="cls-11" d="m187.58,149.33s-1.62,2.64-.81,4.46"/>
            <path class="cls-11" d="m180.38,138.52s3.15-2.49,4.97-2.89"/>
            <path class="cls-11" d="m192.62,128.24s-2.61-1.29-5.04-.69"/>
          </g>
        </g>
      </g>
    </g>
  </g>
</svg>