<?xml version="1.0" encoding="UTF-8"?>
<svg id="Layer_2" data-name="Layer 2" xmlns="http://www.w3.org/2000/svg" viewBox="0 0 127.95 155.52">
  <defs>
    <style>
      .cls-1 {
        fill: none;
        stroke: #2f84af;
        stroke-linecap: round;
        stroke-linejoin: round;
        stroke-width: 1.5px;
      }

      .cls-2 {
        fill: #a8cbe5;
      }
    </style>
  </defs>
  <g id="OBJECTS">
    <g>
      <path class="cls-2" d="m62.25,10.46c5.85-.61,11.72-.73,17.3-.46,8.86.42,17.34.47,25.01,5.68,6.89,4.68,10.02,13.7,6.99,21.53-1.6,4.14-4.59,7.36-5.38,11.84-.83,4.73.03,9.56-.05,14.31-.03,1.76,1.71,2.93,3,4.16,2.5,2.39,4.86,4.93,7.32,7.37,1.06,1.05,2.25,1.54,2.03,3.18-.5,3.69-4.32,3.85-6.5,5.98-1.57,1.53-1.74,3.5-.9,5.48.57,1.34,1.23,2.88.59,4.19-.61,1.24-2.23,1.82-2.64,3.13-.37,1.2.42,2.52.06,3.72-.61,2.04-3.44,1.99-4.47,3.5-1.19,1.75-1.8,4.51-1.94,6.6-.42,6.14-3.67,8.89-9.52,8.14-3.09-.39-6.08-1.68-9.09-2.63-5.81-1.84-11.7-2.45-11.47,5.21.19,6.41-.07,12.83.04,19.24.11,6.23,3.67,14.93-5.84,14.88-5.39-.03-30.77-.99-32.11-5.08-.27-.81-.05-1.69.16-2.51,1.92-7.37,3.84-14.74,5.76-22.11.6-2.3,2.79-6.41.51-8.31-1.97-1.64-4.45.17-6.54.71-2.53.66-5.17.75-7.78.76-17.49.06-22.7-7.11-26.46-24.02-1.48-6.67,2.12-12.3,7.43-16.28,2.03-1.52,4.49-2.36,6.66-3.66,2.55-1.53,3.06-3.08,3.2-6.07.24-5.21-2.03-10.28-2.5-15.32-.45-4.79.21-9.65,1.76-14.2,3.21-9.41,10.19-17.41,19.09-21.84,7.94-3.96,17.09-6.17,26.28-7.14Z"/>
      <g>
        <path class="cls-1" d="m79.58,153.74c-1.27-8.8-1.91-17.9-2.13-21.55-.67-11.27,2.17-13.15,12.8-9.78,3.3,1.05,4.66,2,8.06,2.43,6.42.82,9.98-2.19,10.44-8.93.2-2.87,1.6-8.91,4.35-10.58.89-.54,1.88-.89,2.77-1.42.27-.16.54-.35.7-.63.14-.25.18-.55.19-.84.06-1.58-.44-3.32.39-4.67.76-1.25,2.48-1.81,2.96-3.2.19-.55.14-1.15.04-1.72-.3-1.69-1.51-3.02-1.54-4.72-.02-1.22.29-2.4,1.06-3.35,1.18-1.46,2.9-1.79,4.33-2.8,1.24-.88,2.86-2.44,3.16-4,.31-1.58-1.06-2.61-2.02-3.56-2.71-2.67-5.29-5.47-8.04-8.1-1.42-1.35-3.32-2.64-3.29-4.57.1-5.95-2.36-15.26,1.95-20.19,4-4.57,5.92-9.67,5.52-16-.41-6.48-3.91-12.55-9.19-16.13C92.09-4.12,57.17-2.33,42.55,18.49c-5.23,7.45-7.19,16.87-6.68,25.96.43,7.6,2.82,15.6,8.75,20.38,7.24,5.86,18.14,5.33,26.35.94,5.15-2.76,9.65-7,11.94-12.37,3.44-8.1,3.13-18.99-5.48-23.9-9.89-5.63-21.4,3.77-22.87,13.52-2.34,15.53,8.65,30.55,6.88,46.11-.59,5.17-3.01,9.94-5.64,14.43"/>
        <g>
          <g>
            <path class="cls-1" d="m71.7,79.78c2.8-.81,5.95-.35,8.4,1.23.69.45-2.34,3.45-6.28,4.57-2.42.69-5.96.35-8.13-.94,1.02-2.36,3.58-4.15,6.01-4.85Z"/>
            <path class="cls-1" d="m71.73,93.04c2.89.37,5.59,2.05,7.22,4.48.46.69-3.52,2.23-7.58,1.69-2.49-.33-5.6-2.05-7.08-4.11,1.88-1.76,4.93-2.38,7.45-2.05Z"/>
          </g>
          <g>
            <path class="cls-1" d="m53.1,79.29c-2.33-1.75-5.44-2.44-8.29-1.83-.81.17.96,4.05,4.25,6.5,2.02,1.5,5.45,2.44,7.94,2-.12-2.57-1.88-5.15-3.9-6.67Z"/>
            <path class="cls-1" d="m48.38,91.69c-2.84-.67-5.96-.06-8.33,1.63-.67.48,2.5,3.33,6.49,4.26,2.45.57,5.97.06,8.08-1.34-1.13-2.31-3.77-3.97-6.24-4.55Z"/>
          </g>
        </g>
      </g>
    </g>
  </g>
</svg>