<?xml version="1.0" encoding="UTF-8"?>
<svg id="Layer_2" data-name="Layer 2" xmlns="http://www.w3.org/2000/svg" viewBox="0 0 159.64 151.53">
  <defs>
    <style>
      .cls-1 {
        fill: none;
        stroke: #2f84af;
        stroke-linecap: round;
        stroke-linejoin: round;
        stroke-width: 1.5px;
      }

      .cls-2 {
        fill: #a8cbe5;
      }
    </style>
  </defs>
  <g id="OBJECTS">
    <g>
      <path class="cls-2" d="m148.24,74.85c-.56-.92-1.35-1.63-2.07-2.4-3.15-3.35-6.31-6.68-9.43-10.06-2.5-2.71-3.11-6.06-2.61-9.53,1.9-13.03-5.49-28.09-20.17-34.42-3.96-4.13-8.75-7.37-14.04-10-7.54-3.76-15.55-6.01-23.91-7.04-9.16-1.13-18.15-.56-26.99,2.23-16.91,5.35-25.57,21.68-23.53,35.68.51,3.47-.1,6.82-2.61,9.53-3.12,3.38-6.28,6.71-9.43,10.06-.73.77-1.51,1.48-2.07,2.4-1.3,2.11-.88,3.81,1.31,4.96,1.49.78,3.02,1.5,4.66,1.87,1.13.26,1.22.78.74,1.69-.62,1.17-1.18,2.37-1.78,3.56-.79,1.58-.55,2.67.9,3.66.62.43,1.23.85,1.67,1.48.45.65.38,1.05-.41,1.42-2.96,1.39-3.19,3.56-.64,5.66,1.74,1.43,2.28,3.55,1.39,5.73-.37.9-.87,1.74-1.31,2.6-2.27,4.45-.67,8.62,4.06,10.16,4.28,1.39,8.67,1.64,13.07.48,2.81-.74,3.82-.01,3.75,2.9-.12,4.47-.17,8.95-.46,13.41-.21,3.2-1.25,7.46,1.6,9.81,1.09.9,2.52,1.61,4.11,2.17,6.87,2.4,16.05,4.79,24.9,5.09-.17,3.53-.06,7.46,2.49,9.17,4.91,3.28,11.2,4.47,17.77,4.42,9.28-.07,19.11-2.59,26.35-5.12,1.58-.55,3.01-1.27,4.11-2.17,2.86-2.34,1.81-6.61,1.6-9.81-.29-4.46-.34-8.94-.46-13.41-.08-2.92.94-3.64,3.75-2.9,4.4,1.16,8.79.91,13.07-.48,4.73-1.54,6.34-5.71,4.06-10.16-.44-.87-.94-1.71-1.31-2.6-.89-2.18-.35-4.3,1.39-5.73,2.55-2.1,2.33-4.27-.64-5.66-.79-.37-.86-.78-.41-1.42.44-.63,1.05-1.05,1.67-1.48,1.45-.99,1.7-2.09.9-3.66-.6-1.18-1.16-2.38-1.78-3.56-.48-.91-.4-1.43.74-1.69,1.64-.37,3.17-1.1,4.66-1.87,2.19-1.15,2.6-2.85,1.31-4.96Zm-60.11-28.15c-.36.24-.57.65-.53,1.08l1.57,15.75c.07.67-.46,1.26-1.14,1.26h-8.6c-.68,0-1.2-.58-1.14-1.26l1.57-15.75c.04-.43-.17-.83-.53-1.08-2.53-1.73-4.01-4.88-3.18-8.33.67-2.78,2.93-5.03,5.71-5.67,5.12-1.19,9.67,2.67,9.67,7.59,0,2.67-1.36,5.01-3.41,6.41Z"/>
      <path class="cls-1" d="m69.3,110.69c.37-1.01,1.02-1.9,1.66-2.77,9.52-12.88,18.75-24.8,24.8-39.84,5.53-13.74,8.66-29.34,4.06-43.81-2.17-6.81-7.16-12.51-13.19-16.33C73.25-.53,55.33-.94,40.56,3.73c-17.54,5.55-26.52,22.49-24.41,37.01.52,3.6-.11,7.08-2.7,9.89-3.23,3.5-6.52,6.96-9.78,10.43-.75.8-1.57,1.54-2.15,2.49-1.35,2.19-.92,3.95,1.36,5.14,1.54.81,3.13,1.56,4.84,1.94,1.18.26,1.26.81.77,1.75-.64,1.22-1.22,2.46-1.84,3.69-.82,1.63-.57,2.77.94,3.8.65.44,1.28.89,1.74,1.54.47.67.39,1.09-.42,1.48-3.07,1.44-3.31,3.7-.66,5.87,1.8,1.48,2.36,3.68,1.44,5.95-.38.93-.9,1.8-1.36,2.7-2.36,4.62-.69,10.15,4.22,11.75,4.44,1.44,8.99,1.7,13.56.5,2.91-.76,3.97-.01,3.89,3.01-.08,3.03-.44,9.92-.83,16.77"/>
      <path class="cls-1" d="m130.51,142.99c-.4-6.85-.76-13.74-.83-16.77-.08-3.02.98-3.78,3.89-3.01,4.56,1.2,9.11.94,13.56-.5,4.91-1.59,6.57-7.12,4.22-11.75-.46-.9-.98-1.77-1.36-2.7-.92-2.27-.36-4.46,1.44-5.95,2.65-2.18,2.41-4.43-.66-5.87-.82-.38-.9-.81-.42-1.48.46-.65,1.09-1.09,1.74-1.54,1.5-1.03,1.76-2.16.94-3.8-.62-1.23-1.2-2.47-1.84-3.69-.49-.94-.41-1.48.77-1.75,1.71-.38,3.29-1.14,4.84-1.94,2.27-1.19,2.7-2.96,1.36-5.14-.59-.95-1.4-1.69-2.15-2.49-3.27-3.47-6.55-6.93-9.78-10.43-2.6-2.81-3.23-6.29-2.7-9.89,2.11-14.52-6.87-31.46-24.41-37.01-11.93-3.77-27.04-5.58-38.64.16-11.45,5.67-16.33,18.43-16.79,30.56-.24,6.38.62,12.83,2.52,18.93,5.59,17.99,20.25,33.68,35.33,44.46"/>
    </g>
  </g>
</svg>