<?xml version="1.0" encoding="UTF-8"?>
<svg id="Layer_2" data-name="Layer 2" xmlns="http://www.w3.org/2000/svg" viewBox="0 0 175.92 142.26">
  <defs>
    <style>
      .cls-1 {
        fill: #5fd3b0;
      }

      .cls-2 {
        fill: #31a381;
      }

      .cls-3 {
        fill: #333;
      }
    </style>
  </defs>
  <g id="objects">
    <g>
      <g>
        <polygon class="cls-2" points="132.2 133.11 98.68 142.26 129.95 114.4 132.2 133.11"/>
        <polygon class="cls-1" points="129.95 114.4 132.2 133.11 48.25 125.69 129.95 114.4"/>
        <polygon class="cls-2" points="175.92 114.63 48.25 125.69 50.07 101.32 175.92 114.63"/>
        <polygon class="cls-1" points="18.39 13.38 12.3 118.8 175.92 114.63 163.19 15.58 18.39 13.38"/>
        <polygon class="cls-3" points="157.24 15.49 156.28 5.6 16.8 18.8 9 114.63 167.99 126.03 166.9 114.86 168.35 114.82 169.62 127.9 8.06 115.9 7.44 115.76 15.46 17.48 157.58 4.02 158.7 15.51 157.24 15.49"/>
      </g>
      <path class="cls-3" d="m19.64,125.66c.36-.29.41-.82.12-1.18-.29-.36-.82-.41-1.18-.12s-.41.82-.12,1.18.82.41,1.18.12Z"/>
      <path class="cls-3" d="m14.74,127.52c1.38-1.13,1.59-3.17.46-4.55-1.13-1.38-3.17-1.59-4.55-.46-1.38,1.13-1.59,3.17-.46,4.55s3.17,1.59,4.55.46Z"/>
      <path class="cls-3" d="m4.39,113.07c.67-.54.76-1.52.22-2.19s-1.52-.76-2.19-.22c-.67.54-.76,1.52-.22,2.19.54.67,1.52.76,2.19.22Z"/>
      <circle class="cls-3" cx="11.55" cy="22.01" r=".74"/>
      <path class="cls-3" d="m14.07,14.18c0-1.5-1.22-2.72-2.72-2.72s-2.72,1.22-2.72,2.72,1.22,2.72,2.72,2.72,2.72-1.22,2.72-2.72Z"/>
      <path class="cls-3" d="m15.86,9c0-.38-.31-.68-.68-.68s-.68.31-.68.68.31.68.68.68.68-.31.68-.68Z"/>
      <circle class="cls-3" cx="20.64" cy="8.66" r=".34"/>
      <circle class="cls-3" cx="165.26" cy="8.09" r="4.18"/>
      <path class="cls-3" d="m161.08.73c0-.41-.33-.73-.73-.73s-.73.33-.73.73.33.73.73.73.73-.33.73-.73Z"/>
      <path class="cls-3" d="m2.37,122.21l.02-2.03-2.03-.02c-.2,0-.36-.17-.36-.37,0-.2.17-.36.37-.36l2.03.02.02-2.03c0-.2.17-.36.37-.36.2,0,.36.17.36.37l-.02,2.03,2.03.02c.2,0,.36.17.36.37,0,.2-.17.36-.37.36l-2.03-.02-.02,2.03c0,.2-.17.36-.37.36s-.36-.17-.36-.37Z"/>
      <path class="cls-3" d="m11.03,25.87h-2.03v2.03c0,.2-.16.36-.36.36s-.36-.16-.36-.36v-2.03h-2.03c-.2,0-.36-.16-.36-.36s.16-.36.36-.36h2.03v-2.03c0-.2.16-.36.36-.36s.36.16.36.36v2.03h2.03c.2,0,.36.16.36.36s-.16.36-.36.36Z"/>
      <path class="cls-3" d="m170.42,19.63h-2.03v2.03c0,.2-.16.36-.36.36s-.36-.16-.36-.36v-2.03h-2.03c-.2,0-.36-.16-.36-.36s.16-.36.36-.36h2.03v-2.03c0-.2.16-.36.36-.36s.36.16.36.36v2.03h2.03c.2,0,.36.16.36.36s-.16.36-.36.36Z"/>
    </g>
  </g>
</svg>